<?xml version="1.0" encoding="utf-8"?>
<!-- Generator: Adobe Illustrator 23.1.1, SVG Export Plug-In . SVG Version: 6.00 Build 0)  -->
<svg version="1.1" id="Calque_1" xmlns="http://www.w3.org/2000/svg" xmlns:xlink="http://www.w3.org/1999/xlink" x="0px" y="0px"
	 viewBox="0 0 207 73" style="enable-background:new 0 0 207 73;" xml:space="preserve">
<style type="text/css">
	.st0{fill:#8891B1;}
	.st1{fill:#63688E;}
	.st2{fill:#464A75;}
</style>
<path class="st0" d="M29.3,31.1V14.4L15.4,37.4L29.3,31.1z"/>
<path class="st1" d="M29.3,45.7V31.1l-13.9,6.3L29.3,45.7z M29.3,31.1l13.9,6.3L29.3,14.4V31.1z"/>
<path class="st2" d="M29.3,31.1v14.5l13.9-8.2L29.3,31.1z"/>
<path class="st0" d="M29.3,48.3l-13.9-8.2l13.9,19.6V48.3z"/>
<path class="st1" d="M43.2,40.1l-13.9,8.2v11.4L43.2,40.1z"/>
<path class="st0" d="M66.4,40.6c0,0.3-0.3,0.6-0.6,0.6H54.7c0.3,2.6,2.3,5.2,5.3,5.2c2,0,3.5-0.8,4.6-2.4c0.1-0.2,0.3-0.3,0.5-0.3
	c0.3,0,0.6,0.2,0.6,0.6c0,0.1,0,0.2-0.1,0.3c-1.1,2-3.3,2.9-5.5,2.9c-3.7,0-6.4-3.3-6.4-6.9s2.7-6.9,6.4-6.9
	C63.7,33.6,66.4,37,66.4,40.6L66.4,40.6z M65.2,40c-0.2-2.8-2.3-5.3-5.3-5.3s-5,2.4-5.3,5.3H65.2z M79.9,33.8c0.3,0,0.6,0.3,0.6,0.6
	c0,0.3-0.2,0.6-0.6,0.6h-3v11.7c0,0.3-0.3,0.6-0.6,0.6s-0.6-0.3-0.6-0.6V35h-2.9c-0.3,0-0.6-0.3-0.6-0.6c0-0.3,0.2-0.6,0.6-0.6h2.9
	v-4.2c0-0.3,0.3-0.6,0.6-0.6s0.6,0.2,0.6,0.6v4.2H79.9z M98,39.5v7.1c0,0.3-0.2,0.6-0.5,0.6c-0.3,0-0.5-0.2-0.5-0.6v-7.1
	c0-2.4-1.4-4.8-4.1-4.8c-3.4,0-5,3-4.8,6.1c0,0.1,0,0.4,0,0.5v5.3c0,0.3-0.2,0.6-0.5,0.6s-0.5-0.2-0.5-0.6V23.3
	c0-0.3,0.2-0.6,0.5-0.6s0.5,0.3,0.5,0.6v13.2c1.1-1.7,2.7-2.9,4.7-2.9C96.1,33.6,98,36.5,98,39.5L98,39.5z M118,40.6
	c0,0.3-0.3,0.6-0.6,0.6h-11.1c0.3,2.6,2.3,5.2,5.3,5.2c2,0,3.5-0.8,4.6-2.4c0.1-0.2,0.3-0.3,0.5-0.3c0.3,0,0.6,0.2,0.6,0.6
	c0,0.1,0,0.2-0.1,0.3c-1.1,2-3.3,2.9-5.5,2.9c-3.7,0-6.4-3.3-6.4-6.9s2.7-6.9,6.4-6.9C115.3,33.6,118,37,118,40.6z M116.8,40
	c-0.2-2.8-2.3-5.3-5.3-5.3c-2.9,0-5,2.4-5.3,5.3H116.8z M131.7,34.4c0,0.4-0.2,0.6-0.5,0.6c-3.3,0.5-4.8,3.1-4.8,6.3v5.3
	c0,0.3-0.3,0.6-0.6,0.6c-0.3,0-0.6-0.2-0.6-0.6V34.4c0-0.3,0.3-0.6,0.6-0.6c0.3,0,0.6,0.2,0.6,0.6v2.5c0.9-1.6,2.8-3,4.7-3
	C131.4,33.9,131.7,34.1,131.7,34.4z M150,40.6c0,0.3-0.3,0.6-0.6,0.6h-11.1c0.3,2.6,2.3,5.2,5.3,5.2c2,0,3.5-0.8,4.6-2.4
	c0.1-0.2,0.3-0.3,0.5-0.3c0.3,0,0.6,0.2,0.6,0.6c0,0.1,0,0.2-0.1,0.3c-1.1,2-3.3,2.9-5.5,2.9c-3.7,0-6.4-3.3-6.4-6.9
	s2.7-6.9,6.4-6.9C147.2,33.6,150,37,150,40.6L150,40.6z M148.8,40c-0.2-2.8-2.3-5.3-5.3-5.3s-5,2.4-5.3,5.3H148.8z M168,34.5v12.2
	c0,0.3-0.3,0.6-0.6,0.6c-0.3,0-0.6-0.2-0.6-0.6v-2.3c-0.9,1.8-2.6,3.1-4.6,3.1c-3.3,0-5.2-2.9-5.2-5.9v-7.1c0-0.3,0.3-0.6,0.6-0.6
	c0.3,0,0.6,0.3,0.6,0.6v7.1c0,2.4,1.4,4.8,4,4.8c3.7,0,4.6-3.5,4.6-7.4v-4.5c0-0.3,0.3-0.6,0.6-0.6C167.7,33.9,168,34.2,168,34.5
	L168,34.5z M196,39.5v7.1c0,0.3-0.3,0.6-0.6,0.6c-0.3,0-0.6-0.2-0.6-0.6v-7.1c0-2.4-1.4-4.7-4-4.7c-3.3,0-4.6,3.6-4.6,6.4v5.5
	c0,0.3-0.3,0.6-0.6,0.6c-0.3,0-0.6-0.2-0.6-0.6v-7.1c0-2.4-1.3-4.7-4-4.7c-3.4,0-4.8,2.7-4.7,6.2v5.7c0,0.3-0.3,0.6-0.6,0.6
	s-0.6-0.2-0.6-0.6V34.4c0-0.3,0.3-0.6,0.6-0.6s0.6,0.2,0.6,0.6v2c0.9-1.7,2.7-2.8,4.7-2.8c2.3,0,4,1.4,4.8,3.5
	c0.9-2.1,2.7-3.5,5-3.5C194.2,33.6,196,36.5,196,39.5L196,39.5z"/>
</svg>
