<?xml version="1.0" encoding="utf-8"?>
<!-- Generator: Adobe Illustrator 23.1.1, SVG Export Plug-In . SVG Version: 6.00 Build 0)  -->
<svg version="1.1" id="Calque_1" xmlns="http://www.w3.org/2000/svg" xmlns:xlink="http://www.w3.org/1999/xlink" x="0px" y="0px"
	 viewBox="0 0 207 73" style="enable-background:new 0 0 207 73;" xml:space="preserve">
<style type="text/css">
	.st0{fill:#F8F8F8;}
</style>
<path class="st0" d="M31.2,48c-2.4,0-4.4-0.5-5.8-1.6c-1.5-1.1-2.2-2.7-2.2-4.7c0-0.4,0.1-0.9,0.2-1.5c0.3-1.4,0.6-3.1,1.1-5.1
	c1.4-5.3,4.9-8.1,10.5-8.1c1.5,0,2.9,0.3,4.1,0.8c1.2,0.5,2.1,1.2,2.9,2.2c0.7,0.9,1,2.1,1,3.5c0,0.4-0.1,0.9-0.2,1.5
	c-0.3,1.7-0.7,3.3-1.1,5.1c-0.7,2.7-1.9,4.6-3.6,6C36.5,47.3,34.1,48,31.2,48z M31.7,43.8c1.1,0,2.1-0.3,2.8-0.9s1.4-1.6,1.7-2.9
	c0.4-1.5,0.8-3.2,1-4.8c0.1-0.4,0.1-0.9,0.1-1.3c0-1.8-0.9-2.7-2.8-2.7c-1.1,0-2.1,0.3-2.9,0.9c-0.8,0.6-1.4,1.6-1.7,2.9
	c-0.3,1.3-0.7,2.9-1.1,4.8c-0.1,0.4-0.1,0.9-0.1,1.2C28.8,42.8,29.8,43.8,31.7,43.8z M46.1,47.6c-0.3,0-0.4-0.1-0.5-0.2
	c-0.1-0.2-0.2-0.3-0.1-0.5l4.1-19c0-0.2,0.2-0.4,0.3-0.5c0.2-0.2,0.3-0.2,0.6-0.2h8c2.2,0,4,0.4,5.3,1.4c1.4,0.9,2.1,2.2,2.1,3.9
	c0,0.5-0.1,1-0.2,1.5c-0.5,2.2-1.5,3.9-3,5c-1.5,1-3.6,1.6-6.2,1.6h-4L51.1,47c0,0.2-0.2,0.4-0.3,0.5c-0.2,0.2-0.3,0.2-0.6,0.2
	L46.1,47.6L46.1,47.6z M56.8,36.5c0.9,0,1.5-0.3,2.2-0.7c0.6-0.4,1-1.1,1.3-1.9c0.1-0.3,0.1-0.6,0.1-0.9c0-0.6-0.2-1-0.5-1.3
	c-0.3-0.3-0.9-0.4-1.7-0.4h-3.6l-1.1,5.2L56.8,36.5L56.8,36.5z M72.7,47.6c-0.3,0-0.4-0.1-0.5-0.2c-0.1-0.1-0.1-0.2-0.1-0.3
	s0-0.2,0-0.3l3.3-15.2h-5.3c-0.3,0-0.4-0.1-0.5-0.2c-0.1-0.2-0.2-0.3-0.1-0.5l0.7-3.1c0-0.2,0.2-0.4,0.3-0.5
	c0.2-0.2,0.3-0.2,0.6-0.2h16.2c0.3,0,0.4,0.1,0.5,0.2c0.1,0.1,0.1,0.3,0.1,0.3c0,0.1,0,0.1,0,0.2l-0.9,3.1c0,0.2-0.2,0.4-0.3,0.5
	c-0.2,0.2-0.3,0.2-0.6,0.2h-5.3l-3.3,15.2c0,0.2-0.2,0.4-0.3,0.5c-0.2,0.2-0.3,0.2-0.6,0.2H72.7z M88.6,47.6c-0.3,0-0.4-0.1-0.5-0.2
	C88,47.4,88,47.3,88,47.2s0-0.2,0-0.3l4.2-19c0-0.2,0.2-0.4,0.3-0.5c0.2-0.2,0.3-0.2,0.6-0.2h4c0.3,0,0.4,0.1,0.5,0.2
	c0.1,0.1,0.1,0.3,0.1,0.3c0,0.1,0,0.1,0,0.2l-4.1,19c0,0.2-0.2,0.4-0.3,0.5c-0.2,0.2-0.3,0.2-0.6,0.2H88.6z M100.1,47.6
	c-0.3,0-0.4-0.1-0.5-0.2c-0.1-0.2-0.2-0.3-0.1-0.5l4.1-19c0-0.2,0.2-0.4,0.3-0.5c0.2-0.2,0.3-0.2,0.6-0.2h3.3c0.5,0,0.8,0.2,0.9,0.6
	L112,37l7.3-9.2c0.1-0.2,0.3-0.3,0.4-0.4c0.2-0.2,0.4-0.2,0.7-0.2h3.3c0.3,0,0.4,0.1,0.5,0.2c0.1,0.1,0.1,0.3,0.1,0.3
	c0,0.1,0,0.1,0,0.2l-4.1,19c0,0.2-0.2,0.4-0.3,0.5c-0.2,0.2-0.3,0.2-0.6,0.2h-3.6c-0.3,0-0.4-0.1-0.5-0.2c-0.1-0.2-0.2-0.3-0.1-0.5
	l2.3-10.8l-4.6,5.9c-0.2,0.2-0.3,0.3-0.6,0.5c-0.2,0.1-0.4,0.2-0.6,0.2h-1.5c-0.4,0-0.7-0.3-0.9-0.7l-2.1-6.2l-2.4,11.1
	c0,0.2-0.2,0.4-0.3,0.5c-0.2,0.2-0.3,0.2-0.6,0.2H100.1z M126.6,47.6c-0.3,0-0.4-0.1-0.5-0.2c-0.1-0.2-0.2-0.3-0.1-0.5l4.2-19
	c0-0.2,0.2-0.4,0.3-0.5c0.2-0.2,0.3-0.2,0.6-0.2h4c0.3,0,0.4,0.1,0.5,0.2c0.1,0.1,0.1,0.3,0.1,0.3c0,0.1,0,0.1,0,0.2l-4.1,19
	c0,0.2-0.2,0.4-0.3,0.5c-0.2,0.2-0.3,0.2-0.6,0.2H126.6L126.6,47.6z M145.4,48c-1.8,0-3.3-0.3-4.5-0.7c-1.2-0.4-2.1-1.1-2.8-1.9
	c-0.6-0.8-0.9-1.6-0.9-2.6c0-0.2,0-0.4,0.1-0.7c0-0.2,0.1-0.3,0.3-0.4c0.2-0.1,0.3-0.2,0.5-0.2h3.9c0.3,0,0.4,0,0.5,0.1
	c0.2,0.1,0.3,0.3,0.4,0.4c0.2,0.5,0.4,0.9,0.9,1.3s1.2,0.5,2.1,0.5c1.1,0,2.1-0.2,2.7-0.5c0.7-0.3,1.1-0.9,1.3-1.5
	c0-0.1,0-0.2,0-0.3c0-0.5-0.3-0.9-0.9-1.1c-0.6-0.3-1.8-0.6-3.4-1c-2-0.4-3.4-1-4.5-1.8c-1-0.9-1.5-1.9-1.5-3.3
	c0-0.4,0.1-0.9,0.2-1.5c0.4-1.8,1.4-3.3,3-4.3s3.7-1.5,6.2-1.5c1.5,0,2.9,0.3,4,0.8c1.2,0.5,2.1,1.2,2.7,2.1c0.7,0.8,1,1.6,1,2.4
	c0,0.3,0,0.4,0,0.5c0,0.2-0.2,0.3-0.3,0.4c-0.1,0.1-0.2,0.1-0.2,0.2c-0.1,0-0.2,0.1-0.3,0h-4c-0.4,0-0.8-0.2-0.9-0.5
	c0-0.4-0.3-0.9-0.7-1.1c-0.4-0.3-1-0.4-1.8-0.4c-0.9,0-1.6,0.2-2.2,0.4c-0.6,0.3-0.9,0.8-1,1.4c0,0.1,0,0.3,0,0.3
	c0,0.4,0.3,0.9,0.9,1.2c0.6,0.3,1.6,0.6,3,0.9c2.2,0.4,3.9,1,4.9,1.8s1.5,1.9,1.5,3.2c0,0.4-0.1,0.9-0.2,1.5c-0.4,2-1.5,3.5-3.3,4.5
	C150.6,47.4,148.2,48,145.4,48z M159.6,47.6c-0.3,0-0.4-0.1-0.5-0.2c-0.1-0.2-0.2-0.3-0.1-0.5l4.1-19c0-0.2,0.2-0.4,0.3-0.5
	c0.2-0.2,0.3-0.2,0.6-0.2h3.3c0.5,0,0.8,0.2,0.9,0.6l3.3,9.2l7.3-9.2c0.1-0.2,0.3-0.3,0.4-0.4c0.2-0.2,0.4-0.2,0.7-0.2h3.3
	c0.3,0,0.4,0.1,0.5,0.2c0.1,0.1,0.1,0.3,0.1,0.3c0,0.1,0,0.1,0,0.2l-4.1,19c0,0.2-0.2,0.4-0.3,0.5c-0.2,0.2-0.3,0.2-0.6,0.2h-3.6
	c-0.3,0-0.4-0.1-0.5-0.2c-0.1-0.1-0.1-0.2-0.1-0.3s0-0.2,0-0.3l2.3-10.8l-4.6,5.9c-0.2,0.2-0.3,0.3-0.6,0.5
	c-0.2,0.1-0.4,0.2-0.6,0.2h-1.5c-0.4,0-0.7-0.3-0.9-0.7l-2.1-6.2L164,46.9c0,0.2-0.2,0.4-0.3,0.5c-0.2,0.2-0.3,0.2-0.6,0.2H159.6z"
	/>
<image style="overflow:visible;" width="1920" height="481" xlink:href="ethereum.png"  transform="matrix(0.1412 0 0 0.1412 -803 168.4839)">
</image>
</svg>
